<!-- Generator: Adobe Illustrator 23.1.1, SVG Export Plug-In . SVG Version: 6.00 Build 0)  -->
<svg xmlns="http://www.w3.org/2000/svg" xmlns:xlink="http://www.w3.org/1999/xlink" version="1.1" id="Layer_1" x="0px" y="0px" viewBox="0 0 2369.6 1643.7" style="enable-background:new 0 0 2369.6 1643.7;" xml:space="preserve">
<style type="text/css">
	.st0{filter:url(#grayscale);}
	.st1{fill:#D3DFFF;}
	.st2{fill:#FFFFFF;}
	.st3{fill:#86A7FF;}
	.st4{fill:#ADC3FF;}
	.st5{fill:#E5ECFF;}
	.st6{fill:#F9B384;}
	.st7{fill:#102048;}
	.st8{fill:#3A6BEA;}
	.st9{fill:#E28B6D;}
	.st10{fill:#214AA5;}
	.st11{fill:#5B4DAD;}
	.st12{fill:#F36B22;}
	.st13{fill:#A34116;}
	.st14{fill:#1F3C88;}
	.st15{fill:#FBC343;}
	.st16{opacity:0.3;fill:#102048;enable-background:new    ;}
	.st17{fill:#AB4446;}
</style>
<filter id="grayscale">
	
		<feColorMatrix type="matrix" values="0.3333 0.3333 0.3333 0 0                 0.3333 0.3333 0.3333 0 0                 0.3333 0.3333 0.3333 0 0                 0 0 0 1 0">
		</feColorMatrix>
</filter>
<g id="BACKGROUND">
</g>
<g id="OBJECTS">
	<g>
		<g class="st0">
			<path class="st1" d="M2084.7,353.6v1143.7c0,16-13,28.9-28.9,28.9H430.4c-16,0-28.9-13-28.9-28.9V353.6c0-16,13-28.9,28.9-28.9     h1625.4C2071.8,324.7,2084.7,337.6,2084.7,353.6z"></path>
			<g>
				<g>
					<rect x="452.7" y="420.3" class="st2" width="1581" height="958.4"></rect>
					<path class="st3" d="M2035.9,1381H450.4V418h1585.5V1381z M454.9,1376.4h1576.4V422.5H454.9V1376.4z"></path>
				</g>
				<g>
					<rect x="452.7" y="360.7" class="st2" width="1581" height="59.6"></rect>
					<path class="st3" d="M2035.9,422.5H450.4v-64.1h1585.5V422.5z M454.9,418h1576.4v-55H454.9V418z"></path>
				</g>
			</g>
			<g>
				<path class="st3" d="M527,404.2c-7.6,0-13.8-6.2-13.8-13.8c0-7.6,6.2-13.8,13.8-13.8c7.6,0,13.8,6.2,13.8,13.8      C540.7,398.1,534.6,404.2,527,404.2z M527,381.2c-5.1,0-9.2,4.1-9.2,9.2c0,5.1,4.1,9.2,9.2,9.2c5.1,0,9.2-4.1,9.2-9.2      C536.2,385.4,532.1,381.2,527,381.2z"></path>
				<path class="st3" d="M573,404.2c-7.6,0-13.8-6.2-13.8-13.8c0-7.6,6.2-13.8,13.8-13.8s13.8,6.2,13.8,13.8      C586.7,398.1,580.5,404.2,573,404.2z M573,381.2c-5.1,0-9.2,4.1-9.2,9.2c0,5.1,4.1,9.2,9.2,9.2s9.2-4.1,9.2-9.2      C582.2,385.4,578,381.2,573,381.2z"></path>
				<path class="st3" d="M618.9,404.2c-7.6,0-13.8-6.2-13.8-13.8c0-7.6,6.2-13.8,13.8-13.8s13.8,6.2,13.8,13.8      C632.7,398.1,626.5,404.2,618.9,404.2z M618.9,381.2c-5.1,0-9.2,4.1-9.2,9.2c0,5.1,4.1,9.2,9.2,9.2s9.2-4.1,9.2-9.2      C628.2,385.4,624,381.2,618.9,381.2z"></path>
			</g>
			<g>
				<rect x="318.5" y="1508.1" class="st1" width="1849.2" height="85.8"></rect>
				<path class="st3" d="M2170.3,1596.4H316v-90.9h1854.3V1596.4z M321.1,1591.3h1844.1v-80.7H321.1V1591.3z"></path>
			</g>
			<g>
				<path class="st2" d="M1324.6,1467.4h-162.8c-10.2,0-18.5-8.3-18.5-18.5v-11c0-10.2,8.3-18.5,18.5-18.5h162.8      c10.2,0,18.5,8.3,18.5,18.5v11C1343,1459.1,1334.7,1467.4,1324.6,1467.4z"></path>
				<path class="st3" d="M1322,1469.7h-157.8c-12.8,0-23.3-10.4-23.3-23.3v-6c0-12.8,10.4-23.3,23.3-23.3H1322      c12.8,0,23.3,10.4,23.3,23.3v6C1345.3,1459.2,1334.9,1469.7,1322,1469.7z M1164.2,1421.7c-10.3,0-18.7,8.4-18.7,18.7v6      c0,10.3,8.4,18.7,18.7,18.7H1322c10.3,0,18.7-8.4,18.7-18.7v-6c0-10.3-8.4-18.7-18.7-18.7H1164.2z"></path>
			</g>
			<g>
				<path class="st3" d="M1809.5,842.8H676.8c-40.9,0-74.2-33.3-74.2-74.2v-5c0-40.9,33.3-74.2,74.2-74.2h1132.7      c40.9,0,74.2,33.3,74.2,74.2v5C1883.7,809.5,1850.4,842.8,1809.5,842.8z M676.8,693.9c-38.4,0-69.7,31.3-69.7,69.7v5      c0,38.4,31.3,69.7,69.7,69.7h1132.7c38.4,0,69.7-31.3,69.7-69.7v-5c0-38.4-31.3-69.7-69.7-69.7H676.8z"></path>
				<path class="st1" d="M811.2,793.8h-137c-12.6,0-22.9-10.3-22.9-22.9v-9.8c0-12.6,10.3-22.9,22.9-22.9h137      c12.6,0,22.9,10.3,22.9,22.9v9.8C834.1,783.6,823.8,793.8,811.2,793.8z"></path>
				<path class="st1" d="M1033.2,793.8H913.4c-12.7,0-23.2-10.4-23.2-23.2v-9.2c0-12.7,10.4-23.2,23.2-23.2h119.7      c12.7,0,23.2,10.4,23.2,23.2v9.2C1056.3,783.4,1045.9,793.8,1033.2,793.8z"></path>
				<path class="st1" d="M1288.3,793.8H1127c-13.4,0-24.4-11-24.4-24.4v-6.7c0-13.4,11-24.4,24.4-24.4h161.3      c13.4,0,24.4,11,24.4,24.4v6.7C1312.7,782.9,1301.8,793.8,1288.3,793.8z"></path>
				<path class="st1" d="M1642.4,793.5h-239.7c-13.4,0-24.4-11-24.4-24.4v-6.7c0-13.4,11-24.4,24.4-24.4h239.7      c13.4,0,24.4,11,24.4,24.4v6.7C1666.8,782.6,1655.8,793.5,1642.4,793.5z"></path>
			</g>
			<rect x="1052.2" y="574.2" class="st3" width="381.8" height="40"></rect>
			<g>
				<rect x="1115.2" y="1086.2" class="st4" width="67.7" height="129.5"></rect>
				<rect x="1254.8" y="1009.2" class="st1" width="67.7" height="206.6"></rect>
				<rect x="1394.3" y="963.8" class="st4" width="67.7" height="252"></rect>
				<rect x="1533.9" y="1073.4" class="st1" width="67.7" height="142.3"></rect>
				<rect x="1673.4" y="991.2" class="st4" width="67.7" height="224.6"></rect>
				<rect x="1812.9" y="905.9" class="st1" width="67.7" height="309.9"></rect>
			</g>
			<g>
				<rect x="584.7" y="898" class="st5" width="381.8" height="24.4"></rect>
				<rect x="584.7" y="966.5" class="st5" width="381.8" height="249.3"></rect>
				<g>
					<path class="st3" d="M792.9,1059.1c-14.4-5.7-29.2-1.2-39.7,9.1c-9.6,9.4-11,22.7-15.5,34.5c9.4,2.6,17.8,8.1,28,6.5       c13.2-2.1,13.6-14.4,21.1-22.8c6.4-7.2,14.1-11.9,23.3-13.1C806.1,1067.5,801.3,1062.4,792.9,1059.1z"></path>
					<path class="st3" d="M901,1046.2c-13,2.8-26.7,7.5-36,17c-8,8.2-7.7,22.4-13.5,30.9c6.6,4.4,13.9,6.4,21.1,2.5       c7-3.8,11.3-12.3,18.9-16.1c6.1-3,14.8-4.9,21.5-6.1c1.5-0.3,3.1-0.4,4.6-0.7v-30.3C912,1044.1,906.5,1045,901,1046.2z"></path>
					<path class="st4" d="M913,1074.5c-6.6,1.2-15.4,3.1-21.5,6.1c-7.6,3.7-11.8,12.3-18.9,16.1c-7.2,3.9-14.6,1.8-21.1-2.5       c-2.6-1.7-5-3.8-7.3-6c-9-8.8-11.8-13.8-25.9-15c-2.9-0.2-5.6-0.1-8.3,0.2c-9.2,1.2-16.9,5.9-23.3,13.1       c-7.5,8.4-7.9,20.8-21.1,22.8c-10.2,1.6-18.6-3.9-28-6.5c-3.7-1-7.6-1.6-11.8-1c-9.9,1.4-16.1,7.3-23,11.8       c-4.8,3.1-9.9,5.6-16.7,5.3c-15.3-0.7-35-9.5-52.6-10v68.1h284.1v-103C916.1,1074,914.5,1074.2,913,1074.5z"></path>
					<path class="st3" d="M702.9,1113.5c-1.1-1-2.2-2-3.1-3.2c-7-8.7-7.6-19.8-15.4-28c-15.2-15.9-35.8-9.6-50.8,3.9v22.5       c17.6,0.6,37.3,9.4,52.6,10C693,1119.1,698.1,1116.7,702.9,1113.5z"></path>
				</g>
			</g>
		</g>
		<g>
			<g>
				<path class="st6" d="M292.7,951.5l-72.6,14.2l16.6-106.8l44.6,0.9c-0.3,1.9-0.6,3.7-0.7,5.6c-1.7,14.3-0.8,28.8,1,41.6      C285.2,932.3,292.7,951.5,292.7,951.5z"></path>
				<path class="st7" d="M281.6,907c-27.9-13.2-38.3-40.8-38.3-40.8l37.2-0.9C278.9,879.8,279.8,894.2,281.6,907z"></path>
				<path class="st6" d="M296.9,798.2c2.8,10,19,73.1-10.4,80.2c-29.4,7.1-59.8-19.9-59.8-19.9l10-60.7l42.7-12.8L296.9,798.2z"></path>
				<path class="st7" d="M258,832.5c0,0,7.7-50.5,39-34.3c-1.1-0.6-2.7-5.6-3.4-6.8c-3.2-5.2-7.2-9.9-12.1-13.5      c-17.8-13.1-47.9-8.3-62.2,6.7c-14.2,14.8-14.6,41.1-7.3,60.2c1.2,3.1,2.7,6.1,4.5,8.8c1.6,2.5,3.6,4.6,5.7,6.7      c1.9,1.8,15.8,12.8,16,4.3C238.3,844.1,258,832.5,258,832.5z"></path>
				
					<ellipse transform="matrix(0.7741 -0.6331 0.6331 0.7741 -469.2092 349.5042)" class="st6" cx="255.1" cy="832.2" rx="12.5" ry="15.4"></ellipse>
				<ellipse class="st6" cx="302.9" cy="834" rx="6.6" ry="7.2"></ellipse>
			</g>
			<g>
				<g>
					<path class="st7" d="M207.7,1363.3l-86.4,37c0,0,71.2,181.2,92,192.6c20.9,11.4,10.4-89.2,24.7-119.6l18-71.2L207.7,1363.3z"></path>
					
						<rect x="214.9" y="1453.3" transform="matrix(6.939923e-02 -0.9976 0.9976 6.939923e-02 -1264.3824 1588.8108)" class="st2" width="9.1" height="37.6"></rect>
				</g>
				<path class="st8" d="M185.9,1350l52.2,123.4c0,0,203.1-106.3,253.4-203.1l-79.7-104.4L185.9,1350z"></path>
				<path class="st7" d="M458.3,1449.6c0,0,94.9,3.8,138.5-71.2l-96.8-14.2L458.3,1449.6z"></path>
				<g>
					<polygon class="st6" points="606.7,1462.6 499.6,1500.4 491,1469.8 475.3,1414.5 564.5,1372.3 570.8,1385.7      "></polygon>
					<polygon class="st7" points="742,1593.8 624.8,1501.3 606.7,1462.6 499.6,1500.4 526.1,1593.8      "></polygon>
					
						<rect x="593" y="1512.3" transform="matrix(0.6173 -0.7867 0.7867 0.6173 -958.8694 1062.4338)" class="st2" width="39.2" height="9.1"></rect>
					<polygon class="st9" points="570.8,1385.7 491,1469.8 475.3,1414.5 564.5,1372.3      "></polygon>
				</g>
				<path class="st8" d="M596.8,1378.4c-50.5,12.7-96.6,36.5-138.5,71.2l-72.1-189.8c0,0-145.5,138.7-232.5,115.8      c-82.6-21.8-46.5-158.5-46.5-158.5c113.4-79.4,293.8-186,372.9-101.6c0.4,0.4,0.7,0.7,1,1c16.2,17.8,34.5,52.9,51.6,91.8      C566.9,1285.9,596.8,1378.4,596.8,1378.4z"></path>
				<path class="st10" d="M532.7,1208.4c-78.6,18.5-159.5-68.9-159.5-68.9l81.3-26.7l25.6,2.7c0.4,0.4,0.7,0.7,1,1      C497.2,1134.3,515.5,1169.5,532.7,1208.4z"></path>
				<path class="st11" d="M456.1,1450.4l-70.9-186.6c-15.4,14.6-99.1,91.2-187.3,114.4l-1.2-4.4c96-25.3,186.8-114.8,187.7-115.7      l2.5-2.5l73.4,193L456.1,1450.4z"></path>
			</g>
			<g>
				<path class="st12" d="M224.1,911.8l-31.9,103l-42.9,138.5c0,0-31.3,11.2-58.9,7.7c-24.4-3.1-45.9-17.7-40-62      C63.3,1001.6,224.1,911.8,224.1,911.8z"></path>
				<path class="st13" d="M192.2,1014.8l-42.9,138.5c0,0-31.3,11.2-58.9,7.7c23.1-142.2,99.7-202.8,99.7-202.8L192.2,1014.8z"></path>
				<polygon class="st13" points="535.8,1013.8 512.1,1104.2 432,1028.6 463.8,975.3 506.7,998.2     "></polygon>
				<polygon class="st6" points="463.9,975.4 494.3,926.8 555.8,900.7 535.6,1014     "></polygon>
				<g>
					<path class="st14" d="M762.3,882.5c-16.1-3.9-30.7-3.2-43.8,1.6c-8.7,3.2-16.8,8.2-24.2,15l-29.7-68.8       c10.3-1.8,19.7-4.9,28.2-9.4c12.3-6.5,22.6-15.9,30.6-28.7L762.3,882.5z"></path>
					<polygon class="st14" points="694.3,899 664.7,830.2 227.7,1037.7 243.5,1074.3 694.3,899 664.7,830.2      "></polygon>
					<path class="st7" d="M762.3,882.5c-16.1-3.9-30.7-3.2-43.8,1.6l-25.7-63.2c12.3-6.5,22.6-15.9,30.6-28.7L762.3,882.5z"></path>
					
						<ellipse transform="matrix(0.7071 -0.7071 0.7071 0.7071 -258.1261 883.6267)" class="st14" cx="937.6" cy="753.4" rx="233.4" ry="233.4"></ellipse>
					<ellipse class="st2" cx="937.6" cy="753.4" rx="194.5" ry="194.5"></ellipse>
					<g>
						<path class="st3" d="M760.3,673.5h354.5c-0.8-1.7-1.5-3.4-2.3-5.1H762.7C761.9,670.1,761.1,671.8,760.3,673.5z"></path>
						<path class="st3" d="M1114.2,834.7H761c0.8,1.7,1.5,3.4,2.4,5.1h348.5C1112.6,838.1,1113.5,836.4,1114.2,834.7z"></path>
						<path class="st1" d="M792.3,756.1v-4c0-16-13.1-29-29-29h-17.8c-3.2,20.3-3.3,41.2,0.2,62h17.7        C779.3,785.1,792.3,772,792.3,756.1z"></path>
						<path class="st1" d="M884.5,723.1c-16.2,0-29.4,13.2-29.4,29.4v3.2c0,16.2,13.2,29.4,29.4,29.4h126.7        c16.2,0,29.4-13.2,29.4-29.4v-3.2c0-16.2-13.2-29.4-29.4-29.4H884.5z"></path>
						<path class="st1" d="M1129.7,723.1h-6.5c-17,0-31,13.9-31,31s13.9,31,31,31h6.2C1132.8,764.8,1133,743.9,1129.7,723.1z"></path>
					</g>
				</g>
				<path class="st6" d="M535.8,1013.8l-29.1-15.5l17.7-38.5c0,0,24.7-44.6,37-42.7C573.8,918.9,535.8,1013.8,535.8,1013.8z"></path>
				<path class="st12" d="M432,1028.6l-6,10.1c-12-16.5-38.5-51.7-71.8-79.7l0,0c-29.9-25.1-70.6-64.2-106.1-58.8      c-95,14.4-141,316.8-141,316.8l245.7-88.9l55,42.9c12,9.3,27,13.8,42.2,12.5l0,0c25.4-2.2,46.7-20.2,53.1-44.8l9-34.5      L432,1028.6z"></path>
				
					<rect x="317.2" y="1054" transform="matrix(0.6632 -0.7484 0.7484 0.6632 -714.5953 609.0927)" class="st13" width="4.5" height="89.1"></rect>
				
					<rect x="437.1" y="1024.3" transform="matrix(0.8167 -0.5771 0.5771 0.8167 -530.645 447.7372)" class="st13" width="4.5" height="69.6"></rect>
			</g>
		</g>
		<g>
			<g>
				<path class="st9" d="M1676.4,441.8c0,0-11.5,36-40.5,52s-67.5,33-54.5,38.5c13,5.5,47.7,2,47.7,2s-67.2,52-48.2,57.5      s65-32,65-32s-6.2,14,3.2,17c9.5,3,27.7-0.5,27.7-0.5s-2.5,10,16.5,7.5s68.5-62.5,68.5-62.5l3.5-55L1676.4,441.8z"></path>
				<path class="st12" d="M1618,132.9c0,0,75-19.5,187.4,51c101.2,63.4,107.9,125.9,60,203.9c-48,78-103.4,133.4-103.4,133.4      l-85.5-79.5l75-116.9L1618,132.9z"></path>
				<path class="st12" d="M1591.5,144.9c0,0-105.9,57-159.9,179.9h369.8l-102-161.9L1591.5,144.9z"></path>
				<path class="st9" d="M1487.1,324.3c0,0,36.4,6.4,49.1,0c12.7-6.4-27.7-24.7-62.6-33.4s-75.7-24-109.4,24      c-33.7,48-30.4,51.3-19.5,50.6c10.9-0.8,36.7-33,36.7-33s-27.7,34.9-14.6,38.6s44.6-43.9,44.6-43.9s-27,38.6-13.1,43.1      c13.9,4.5,43.9-42.7,43.9-42.7s-30.4,47.6-12,46.5c11.9-0.7,25.6-21.6,33.8-36.1C1468.6,329.6,1477.5,324.3,1487.1,324.3      L1487.1,324.3z"></path>
				<path class="st7" d="M1617.3,197.2c-14.4,0-25.8-6.2-26-6.3l2.2-4c1.5,0.8,37.1,20.1,60.1-15.7l3.8,2.5      C1645.5,192.3,1630.2,197.2,1617.3,197.2z"></path>
				<polygon class="st7" points="1678.3,443 1674.5,440.5 1771.2,292 1734.1,234.1 1737.9,231.7 1776.6,292     "></polygon>
			</g>
			<g>
				<path class="st9" d="M1639.1,149.6c-6.1,21.7-35.2,26.3-48.6,8.1l-3.6-4.8l-23.1-31.3l23.8-30.9l2.3-3l5.4,4l3.9,2.9l41.5,31.1      C1641.7,135.4,1640.9,143.3,1639.1,149.6z"></path>
				<path class="st7" d="M1587,152.9l-23.1-31.3l23.8-30.9l7.7,1l3.7,0.5c0,0,0.1,0.8,0.2,2.4C1599.9,102.8,1600.7,129.4,1587,152.9      z"></path>
				<path class="st9" d="M1498.1,72.5c0,0,51.5,92.4,88.5,53.8c28.1-29.4,8.3-69.9,8.3-69.9l-27.3-26.5l-60.8,18.2L1498.1,72.5z"></path>
				<path class="st15" d="M1577.5,77c0,0-17.4-27.6-36.3-14.6c-18.9,13-41.2,48.1-67.1,27.8c-18.1-14.1-5.8-54.2,18.1-50.8      c0,0,26.4-50.6,71.7-37.2c45.3,13.3,27.9,40.3,52.1,44.4c24.2,4,102.6,9.7,89.5,92.5c0,0-33.5-8.9-61.5-5.8      c-35,3.9-58.6-53.8-58.6-53.8C1583.1,80.1,1577.5,77,1577.5,77z"></path>
				<ellipse class="st9" cx="1581.9" cy="74.8" rx="13.7" ry="17.7"></ellipse>
			</g>
		</g>
		<rect y="1590.3" class="st7" width="2369.6" height="6.8"></rect>
		<g>
			<g>
				<rect x="1925.4" y="1344.7" class="st14" width="187.5" height="109.1"></rect>
				<polygon class="st7" points="2134.8,1593.5 2234.7,1643.7 2200.7,1513.7 2156.7,1505.3 2110.7,1521.7     "></polygon>
				<path class="st8" d="M2156.8,1505.3l-22,88.2c0,0-94.9-12.5-187.8-33.1c-42.9-9.5-85.3-20.7-117.9-33.2      c-17.1-6.6-31.5-13.5-41.8-20.8c-72.2-50.9-46.5-168.1,76-148.1c47.5,7.8,98.6,28.9,144.8,52.9c21,10.9,41,22.4,59.1,33.4      C2120,1476.7,2156.8,1505.3,2156.8,1505.3z"></path>
				<path class="st16" d="M2067.2,1444.5l-120.3,115.8c-42.9-9.5-85.3-20.7-117.9-33.2l179-116      C2029.2,1422,2049.1,1433.5,2067.2,1444.5z"></path>
				<g>
					<polygon class="st7" points="1819.9,1521.2 1698.9,1591.4 1876.9,1590.7 1888.3,1523.2      "></polygon>
					<polygon class="st6" points="1925.8,1505.7 1888.3,1523.2 1876.9,1590.7 1879.3,1590.7 1953.8,1591.7 1979.8,1559.2      "></polygon>
				</g>
				<path class="st8" d="M1925.8,1505.7c0,0,141.9-138.9,264.9-171.9c114-30.6,147.9,84,84,140.9c-64,57-320.8,116.9-320.8,116.9      L1925.8,1505.7z"></path>
				<path class="st7" d="M1954.3,1593.9l-1.1-4.4c88.1-22.3,178.7-46.4,244.1-72.3l1.7,4.2      C2133.4,1547.4,2042.6,1571.6,1954.3,1593.9z"></path>
			</g>
			<g>
				<path class="st7" d="M2011.6,959.2c-12.8,1-24.8,4.2-35.4,11.7c-8.9,6.3-15.7,15.1-20,25c-6.8,15.4-5.2,32.7-10.4,48.5      c-5,15.2-17.2,23.1-28.7,33.2c-11,9.8-18.9,26-15,40.9c1.1,4.1,3.1,8,5.8,11.3c2,2.6,8.3,9.9,11.8,9.9c0,0,193,0.9,193,0.9      s35.9-33.6-5.4-72.9c-11.5-10.9-24.3-22.1-30.1-37.4c-3.6-9.5-5.4-19.4-8.1-29.2c-3.5-12.4-11.1-25-21.4-32.9      C2037.3,960.3,2024.3,958.2,2011.6,959.2z"></path>
				<path class="st7" d="M1995.3,970.9c0,0-32.2-24.5-0.3-35.6c24.4-8.5,47.3,1.1,32.7,32.7L1995.3,970.9z"></path>
			</g>
			<g>
				<path class="st12" d="M2003.8,1093.7c0,0-181.4,30.7-217.4,155.9s183,133.3,183,133.3s215.1-7.4,253.3-41.8      s57.7-209.1-197.9-245.9L2003.8,1093.7z"></path>
				<path class="st17" d="M2015.5,1162.2c-1.2,0-2.3,0-3.5-0.1c-13-1.1-23.4-7.8-29.1-19l4-2.1c5,9.7,14,15.6,25.4,16.5      c14,1.2,29-5.3,36.7-15.7l3.7,2.7C2044.8,1155.2,2029.9,1162.2,2015.5,1162.2z"></path>
				
					<rect x="1894.6" y="1217.5" transform="matrix(0.6287 -0.7777 0.7777 0.6287 -289.8773 1949.8466)" class="st17" width="4.5" height="122"></rect>
				
					<rect x="2077.3" y="1277.1" transform="matrix(0.7561 -0.6545 0.6545 0.7561 -316.6817 1709.0652)" class="st17" width="114.4" height="4.5"></rect>
			</g>
			<path class="st2" d="M2108.2,1391.3h-188.8c-6.3,0-11.5-5.1-11.5-11.5v-131.7c0-6.3,5.1-11.5,11.5-11.5h188.8     c6.3,0,11.5,5.1,11.5,11.5v131.7C2119.7,1386.1,2114.5,1391.3,2108.2,1391.3z"></path>
			<g>
				<path class="st6" d="M1993.8,1054.9l-4.9,47c-0.9,9,2.6,17.9,9.5,23.6l0,0c9.4,7.8,22.7,7.9,32.2,0.2l0.4-0.3      c7.2-5.8,10.9-15.1,9.6-24.5l-6.1-46.8L1993.8,1054.9z"></path>
				<path class="st7" d="M1992.9,1064.6c14.4,28.2,30.6,28.8,43,0.7l-25.5-3.3L1992.9,1064.6z"></path>
				<ellipse class="st6" cx="2014.8" cy="1029.8" rx="34.4" ry="45"></ellipse>
				<path class="st7" d="M2054.8,1022.4c0,0-34.5-0.6-45.8-28.5c0,0-18.5,6.5-23.3,30.5l-13.1,4.6l-0.3-37.6l29-18.5l25.9,0.6      l22.8,19.1L2054.8,1022.4z"></path>
				<path class="st6" d="M1990.5,1026.2c3.8,7.4,1.9,16-4.4,19.3s-14.5-0.1-18.3-7.5c-3.8-7.4-1.9-16,4.4-19.3      C1978.4,1015.5,1986.6,1018.8,1990.5,1026.2z"></path>
				<path class="st6" d="M2040.3,1026.2c-3.8,7.4-1.9,16,4.4,19.3c6.3,3.3,14.5-0.1,18.3-7.5s1.9-16-4.4-19.3      C2052.4,1015.5,2044.2,1018.8,2040.3,1026.2z"></path>
			</g>
		</g>
	</g>
</g>
</svg>
