<?xml version="1.0" encoding="UTF-8"?>
<svg xmlns="http://www.w3.org/2000/svg" version="1.1" viewBox="0 0 424.6 314.2">
  <defs>
    <style>
      .cls-1 {
        fill: #b55b52;
      }

      .cls-2, .cls-3, .cls-4, .cls-5, .cls-6, .cls-7, .cls-8, .cls-9, .cls-10 {
        isolation: isolate;
      }

      .cls-2, .cls-11, .cls-5 {
        opacity: .1;
      }

      .cls-3, .cls-7 {
        opacity: .2;
      }

      .cls-12 {
        fill: #e7b278;
      }

      .cls-13 {
        fill: #263238;
      }

      .cls-14 {
        fill: #e4897b;
      }

      .cls-15, .cls-4, .cls-5, .cls-6, .cls-7, .cls-8, .cls-9, .cls-10 {
        fill: #fff;
      }

      .cls-16 {
        fill: #fd6b18;
      }

      .gray {
        #ffffff;
      }

      .cls-17, .cls-4 {
        opacity: .9;
      }

      .cls-18, .cls-6 {
        opacity: .3;
      }

      .cls-19 {
        fill: #ebb376;
      }

      .cls-20 {
        fill: #f5f5f5;
      }

      .cls-21 {
        fill: #bd6c61;
      }

      .cls-22 {
        fill: #d9877c;
      }

      .cls-23 {
        fill: #a02724;
      }

      .cls-24 {
        fill: #d58745;
      }

      .cls-25 {
        fill: #dc897c;
      }

      .cls-8 {
        opacity: .6;
      }

      .cls-9 {
        opacity: .5;
      }

      .cls-10 {
        opacity: .4;
      }
    </style>
  </defs>
  <!-- Generator: Adobe Illustrator 28.6.0, SVG Export Plug-In . SVG Version: 1.2.0 Build 709)  -->
  <g>
    <g id="Layer_1">
      <g id="freepik--Shadow--inject-9">
        <ellipse id="freepik--path--inject-9" class="cls-20" cx="202.2" cy="293.1" rx="217" ry="21.1"/>
      </g>
      <g id="freepik--speech-bubble--inject-9">
        <path class="cls-16" d="M325.8,0h-35.2c-6.7,0-12.1,5.4-12.1,12.1h0v14.6c0,6.7,5.4,12.1,12.1,12.1h24.2l7.7,8.8.5-8.8h2.8c6.7,0,12.1-5.4,12.1-12.1h0v-14.6C337.9,5.4,332.5,0,325.8,0c0,0,0,0,0,0Z"/>
        <path class="cls-15" d="M294.5,19.6c0,1.4-1.1,2.4-2.5,2.4-1.4,0-2.4-1.1-2.4-2.4s1.1-2.4,2.4-2.4,2.5,1.1,2.5,2.4h0Z"/>
        <path class="cls-15" d="M305.3,19.6c0,1.3-1.1,2.4-2.4,2.4-1.3,0-2.4-1.1-2.4-2.4,0-1.3,1.1-2.4,2.4-2.4,1.3,0,2.4,1.1,2.4,2.4,0,0,0,0,0,0Z"/>
        <path class="cls-15" d="M316,19.6c0,1.4-1.1,2.4-2.5,2.4s-2.5-1.1-2.4-2.5c0-1.4,1.1-2.4,2.5-2.4,0,0,0,0,0,0,1.3,0,2.4,1.1,2.4,2.4,0,0,0,0,0,0Z"/>
        <path class="cls-15" d="M326.8,19.6c0,1.4-1.1,2.4-2.5,2.4s-2.5-1.1-2.4-2.5c0-1.4,1.1-2.4,2.5-2.4,0,0,0,0,0,0,1.3,0,2.4,1.1,2.4,2.4,0,0,0,0,0,0Z"/>
      </g>
      <g id="freepik--character-4--inject-9">
        <path class="cls-22" d="M284.4,96.2l-2.5,4.8c-4.2,3.8-8.1-2.5-8.1-2.5l-3.1-2.2c-1.1-.9-1.4-2.4-.7-3.6l1.7-3.4c.6-1.5,2.3-2.2,3.8-1.6l3,1.5c.9.4,1.6,1.1,2.2,1.9l3.7,5.1Z"/>
        <path class="cls-22" d="M340.1,98.9c-5.7,8.3-16.9,22.7-26.6,26-13.7,4-29-13-36.3-22.8-1.5-2.1-1-5,1.2-6.5,1.6-1.1,3.7-1.1,5.3,0,6.6,4.5,19.7,13.3,24.2,13.5,6.1-5.8,11.6-14.1,16.9-20.8,3.1-4.1,8.9-5,13.1-1.9,4,2.9,5,8.5,2.2,12.6h0Z"/>
        <path class="cls-3" d="M337.9,86.3c-4.1-3.1-10-2.3-13.1,1.8h0s0,0,0,0l-4.9,6.5c-1.6,2.1-3.1,4.2-4.7,6.2,2.4,2.5,7,8.4-4.1,8.2h-2.4c-.2,0-.4,0-.6,0-6.9.4-13.7,2.3-19.8,5.6l1.1,1c2.4,2.2,5,4.1,7.7,5.9,1.6,1,3.2,1.8,4.9,2.5,2.2.9,4.5,1.4,6.8,1.6,1.6,0,3.2-.2,4.8-.6.4-.1.9-.3,1.3-.5l1-.4c.3-.1.6-.3.9-.4l.8-.4c1.6-1,3.2-2.1,4.6-3.4,2.4-2.1,4.7-4.3,6.9-6.7,2.1-2.2,4-4.6,5.9-6.9s3.6-4.7,5.3-7.3c2.6-4.1,1.7-9.5-2.2-12.5Z"/>
        <path class="gray" d="M335.6,103.2c-1.5,4.2-3.8,8.1-6.7,11.5-3,3.6-6.5,6.7-10.4,9.3-1.1.7-1.7,1.1-1.7,1.1l-5-9.1h0l-4.4-8s.4-.6,1.1-1.6c3.5-5.1,14.6-20.6,24-23.5.1,0,8.3,6,3.1,20.4Z"/>
        <path class="cls-4" d="M335.6,103.2c-1.5,4.2-3.8,8.1-6.7,11.5-3,3.6-6.5,6.7-10.4,9.3-1.1.7-1.7,1.1-1.7,1.1l-5-9.1h0l-4.4-8s.4-.6,1.1-1.6c3.5-5.1,14.6-20.6,24-23.5.1,0,8.3,6,3.1,20.4Z"/>
        <polygon class="gray" points="319.1 125.1 315.1 126.3 311 118.4 305.7 107.9 308.2 105.7 308.5 106.3 312.8 113.8 318.5 124 319.1 125.1"/>
        <polygon class="cls-8" points="319.1 125.1 315.1 126.3 311 118.4 305.7 107.9 308.2 105.7 308.5 106.3 312.8 113.8 318.5 124 319.1 125.1"/>
        <path class="cls-2" d="M318.5,124l.6,1.1-4,1.2-4-7.9c.2-.8.5-1.6.8-2.4h0c.3-.7.6-1.5.9-2.2,3.1-6.5,7.4-12.4,12.6-17.4,1.5,6,2.7,12.2,3.6,18.3-3,3.6-6.5,6.7-10.4,9.3Z"/>
        <polygon class="cls-22" points="323 263.7 335.8 264 334.5 279.1 323.8 278.8 323 263.7"/>
        <polygon class="cls-3" points="323 263.7 335.8 264 335.1 272.4 323.5 272.2 323 263.7"/>
        <path class="cls-13" d="M344.1,218.8c3.7-19.4,17.2-42.9,6.2-59.8l-35.3,5.6s.8,33.4,1.8,51.3c.9,18.6,4.8,53.7,4.8,53.7l14.6.2s8.1-29.4,7.9-50.9Z"/>
        <path class="cls-13" d="M336.9,270.2h-15.8c-.3-.1-.5-.4-.5-.6l-.7-5.8c0-.3.2-.6.5-.6,0,0,0,0,.1,0l17.6,1.2c.3,0,.5.3.5.6,0,0,0,0,0,0l-1.1,4.8c0,.3-.3.4-.5.4Z"/>
        <path class="cls-3" d="M351.2,175.9c.4,4.5.5,9.1.3,13.6-1.4,6.1-3.2,12.3-4.8,18.3-3.7-16.4-4.9-35.7,4.5-31.8Z"/>
        <path class="cls-13" d="M335.5,277.2c0-.3-.4-.6-.7-.5,0,0,0,0,0,0-3.2,1.3-9.3.3-11.6-.1-.5-.1-1,0-1.5.3-2.5,1.7-9,2.8-9,2.8-.5,1.2-.6,2.6-.3,3.9h24.5c-.6-2.1-1-4.2-1.3-6.3Z"/>
        <polygon class="cls-22" points="363.8 265.7 376.5 264.2 377.4 279.3 366.8 280.5 363.8 265.7"/>
        <polygon class="cls-3" points="363.8 265.7 376.5 264.2 377 272.6 365.5 274 363.8 265.7"/>
        <path class="cls-13" d="M378.8,217.6c1-19.8,6.6-38.5,2.2-60.1l-38.4,10.4s5.4,33,8.8,50.6c3.5,18.3,12.1,52.5,12.1,52.5l14.5-1.8s4-30.2.8-51.5Z"/>
        <path class="cls-13" d="M378.8,269.5l-15.7,2c-.3,0-.5-.1-.6-.4l-1.5-5.7c0-.3,0-.6.4-.7,0,0,0,0,.1,0l17.6-1.2c.3,0,.6.2.6.5,0,0,0,0,0,0l-.4,4.9c0,.3-.2.5-.5.5Z"/>
        <path class="cls-13" d="M377.7,277.2c0-.3-.4-.6-.7-.5,0,0,0,0,0,0-3.2,1.3-9.3.3-11.6-.1-.5-.1-1,0-1.5.3-2.5,1.7-9,2.8-9,2.8-.5,1.2-.6,2.6-.3,3.9h24.5c-.6-2.1-1-4.2-1.3-6.3Z"/>
        <path class="gray" d="M383,146.6c0,6-.4,10.9-1.5,14.4,0,0-52,16.7-67.4,2.7-4.7-34,6.6-62.7,11.9-74.6,1.7-3.8,5.2-6.5,9.3-7.1,11.8-1.5,23.7-1.7,35.6-.5,5.5.6,9.8,3.4,11,11.7.3,2.4.5,4.7.4,7.1,0,2.1,0,4.1-.1,6.1,0,9.8.2,18.8.5,26.7.2,5,.3,9.5.3,13.5Z"/>
        <g class="cls-17">
          <path class="cls-15" d="M383,146.6c0,6-.4,10.9-1.5,14.4,0,0-52,16.7-67.4,2.7-4.7-34,6.6-62.7,11.9-74.7,1.7-3.8,5.2-6.5,9.3-7.1,11.8-1.5,23.7-1.7,35.6-.5,5.5.6,9.8,3.4,11,11.7.3,2.4.5,4.7.4,7.1h0c0,2.1,0,4.1-.1,6.1,0,4.4,0,8.7.1,12.8.1,4.9.3,9.6.4,13.9.2,5,.4,9.5.3,13.5Z"/>
        </g>
        <path class="cls-2" d="M382.3,100.3h0c0,2.1,0,4.1-.1,6.1,0,4.4,0,8.7.1,12.8-6.5,8.2-21.5,12-26.6,7.9s-11.8-12.9-11.8-12.9c0,0,4.2-6.1,15.2-14.7.3,2.1,23.2-1.9,23.2.9Z"/>
        <path class="cls-5" d="M336.9,270.2h-15.8c-.3-.1-.5-.4-.5-.6l-.7-5.8c0-.3.2-.6.5-.6,0,0,0,0,.1,0l17.6,1.2c.3,0,.5.3.5.6,0,0,0,0,0,0l-1.1,4.8c0,.3-.3.4-.5.4Z"/>
        <path class="cls-5" d="M378.8,269.5l-15.7,2c-.3,0-.5-.1-.6-.4l-1.5-5.7c0-.3,0-.6.4-.7,0,0,0,0,.1,0l17.6-1.2c.3,0,.6.2.6.5,0,0,0,0,0,0l-.4,4.9c0,.3-.2.5-.5.5Z"/>
        <path class="cls-16" d="M341.2,86.5c.5,1.7,1.2,3.3,2.2,4.7l1.1,3.6h2.5c0,.1,2.9-3.1,2.9-3.1,0,0,3-1.2,7.3-5.3l-.9-1.4c-2.1,2.2-4.5,4.2-7.1,5.8h-5c-.6-1.6-1.1-3.2-1.3-4.8l-1.6.4Z"/>
        <path class="cls-16" d="M347,94.3c-1.8,7.6-2.7,15.3-2.8,23.1l-3,2.4-2.4-2.4s3.4-16.4,5.8-23.3l2.4.2Z"/>
        <path class="cls-22" d="M353.2,89.7l-12.2-2.7v-2.6c.8-.2,1.4-.9,1.6-1.7,0,0,0-.1,0-.2,0-.5,0-1.1,0-1.6-.1-1.2-.5-2.3-1.1-3.3l14.6-9.1,2.3-1.4h0c0,6.5.1,11.6,3.1,14,.8,3.1-2.6,6.4-8.4,8.6Z"/>
        <path class="cls-3" d="M358.6,67.1c-.2.5-3.5,15.1-15.8,15.7,0,0,0-.1,0-.2,0-.5,0-1.1,0-1.6-.1-1.2-.5-2.3-1.1-3.3l14.6-9.1,2.3-1.4Z"/>
        <path class="gray" d="M359.9,76.2c-3.4,4.9-8,8.8-13.4,11.4,0,0-4.1-2.9-3.7-6.6,0,0-4.2,3.8-4,12.2l5.5-4.7,2.3,2.2,2.5-2,3.5,5.6c5.8-3,10.6-7.7,13.7-13.4l-6.5-4.6Z"/>
        <path class="cls-8" d="M359.9,76.2c-3.4,4.9-8,8.8-13.4,11.4,0,0-4.1-2.9-3.7-6.6,0,0-4.2,3.8-4,12.2l5.5-4.7,2.3,2.2,2.5-2,3.5,5.6c5.8-3,10.6-7.7,13.7-13.4l-6.5-4.6Z"/>
        <path class="cls-13" d="M343.7,49.8s-4.3-.5-5.2,2.6,1.7,6.2,1.7,6.2l4.2-4.8-.7-4Z"/>
        <path class="cls-22" d="M346.3,49.1c8.5-1.9,15.8,5.1,14.1,12.8s-2.9,12.8-8.2,15.4c-10.5,5.2-15.7.2-16.5-7.8-.8-7.2,2-18.5,10.6-20.4Z"/>
        <path class="cls-3" d="M348,62.7c1-.2,2,0,2.9.4-1,0-2,0-2.9-.4Z"/>
        <path class="cls-3" d="M347.9,63.4c.9,0,1.8.3,2.5,1-.9-.2-1.7-.5-2.5-1Z"/>
        <path class="cls-13" d="M346.6,62.7c0,.7-.5,1.2-1,1.1s-.7-.7-.6-1.3.5-1.2,1-1.1.6.7.6,1.3Z"/>
        <path class="cls-13" d="M338.6,61.7c0,.7-.5,1.2-1,1.1s-.7-.7-.6-1.4.5-1.2,1-1.1.7.7.6,1.3Z"/>
        <path class="cls-21" d="M341.3,62.4l-.4,5.7c-1,.2-2.1,0-2.9-.8.6-1.9,1.8-3.6,3.3-5Z"/>
        <path class="cls-13" d="M349.2,61.2c0,0,.1,0,.2,0,.2,0,.3-.3.3-.5-.3-1.3-1.2-2.3-2.4-2.8-.2,0-.4,0-.5.2,0,0,0,0,0,0,0,.2,0,.4.3.5h0c1,.4,1.7,1.2,1.9,2.2,0,.1.1.2.3.3Z"/>
        <path class="cls-13" d="M336.9,59.1c.1,0,.3,0,.4-.2.6-.8,1.5-1.4,2.5-1.4.2,0,.4-.2.4-.4,0,0,0,0,0,0,0-.2-.2-.4-.4-.4-1.3,0-2.5.6-3.2,1.7-.1.2,0,.4,0,.6,0,0,.1,0,.2,0Z"/>
        <path class="cls-13" d="M353.6,65.6c1.1-2.1.6-5.3,0-8.2-.4-1.5.5-3.1,2-3.6,0,0-.3-2.4-4.4-3-2.5-.4-4.7-.9-6,.4s-3,1.1-3.4-.4-1.2-4.8,3.9-5.4,4.8,2.8,6.7,2.8,7,.9,9.4,5.4-1.6,11.7-1.6,11.7c0,0-4.1.7-5.2,2.9s-1.4-2.6-1.4-2.6Z"/>
        <path class="cls-22" d="M362.4,68.7c-1.1,1.5-2.7,2.5-4.5,2.7-2.4.3-3.3-1.9-2.4-4,.8-1.9,3.1-4.4,5.4-3.8,1.7.5,2.6,2.3,2.1,3.9-.1.4-.3.8-.6,1.1Z"/>
        <path class="cls-13" d="M337.5,72.9s.6-3,1.9-3.9,5.2,0,5.2,0v.7c-1-.2-1.9-.3-2.9-.3-.7,0-1.3,4.2.4,5.3s3.4,0,3.4-.3c0-.2,0-.4-.1-.6l1.3-.4c0,.3.2.7.5.8.5.4,2.5-.6,3.2-1.8s-.7-4.7-1.3-4.8-3.3,1.7-3.3,1.7v-.7c0,0,2.1-1.8,3.4-1.8s2.5,1.3,2.9,1.4,1.7-2.6,1.7-2.6l1.8,1.8s1.8,8.7-4.5,11.5-15.3,1.9-14.9-7.4l1.4,1.4Z"/>
        <path class="cls-13" d="M337.5,72.9s.6-3,1.9-3.9,5.2,0,5.2,0v.7c-1-.2-1.9-.3-2.9-.3-.7,0-1.3,4.2.4,5.3s3.4,0,3.4-.3c0-.2,0-.4-.1-.6l1.3-.4c0,.3.2.7.5.8.5.4,2.5-.6,3.2-1.8s-.7-4.7-1.3-4.8-3.3,1.7-3.3,1.7v-.7c0,0,2.1-1.8,3.4-1.8s2.5,1.3,2.9,1.4,1.7-2.6,1.7-2.6l1.8,1.8s1.8,8.7-4.5,11.5-15.3,1.9-14.9-7.4l1.4,1.4Z"/>
        <path class="cls-13" d="M341.6,70.8c.6,1,1.1,2,1.5,3.1h.7c3.2-.8,4.5-2,5-3.1.2-.5.3-1.1.2-1.7,0-.3-.1-.6-.3-.9-1.5,1.2-4.5,2-6.1,2.4-.6.2-1.1.2-1.1.2Z"/>
        <path class="cls-15" d="M342.7,70.6l.5.9c3-.6,5.1-1.4,5.9-2.4,0-.3-.1-.6-.3-.9-1.5,1.2-4.5,2-6.1,2.4Z"/>
        <path class="cls-21" d="M343.9,73.7c3.2-.7,4.5-1.9,5-3-1.2.3-2.4.7-3.5,1.3-.7.4-1.2,1-1.5,1.7Z"/>
        <path class="cls-22" d="M382.3,98.6c-3.7,7.2-8.3,13.9-13.6,20-3.6,4-8.2,8.2-13.8,9.2-4.5.7-9.1.7-13.6,0-9.3-1.3-18.5-3.7-27.3-7.1-2.4-1-3.5-3.7-2.5-6.1.7-1.8,2.5-2.9,4.4-2.9,5.9.3,11.9.7,17.7.9s12.1.5,17.4-.9c.1,0,.7-.3.4-.2.2-.3.4-.5.7-.8,5-5.8,9.6-14.3,13.8-20.9,2.5-4.5,8.2-6.2,12.7-3.7s6.2,8.2,3.7,12.7h0Z"/>
        <path class="cls-22" d="M315.3,111.8l1.5,5.2c-.5,5.6-7.6,3.8-7.6,3.8l-3.8.5c-1.4,0-2.7-.8-3-2.2l-1.1-3.6c-.5-1.5.2-3.2,1.7-3.8l3.2-1c.9-.3,1.9-.3,2.9-.1l6.2,1.2Z"/>
        <path class="gray" d="M374.1,82.2c13.3,4.7,12.1,14.6,8.5,22.3-3.4,7.2-18.3,22.7-18.3,22.7l-15.3-17.1s8.3-8.4,12.7-16,12.3-11.9,12.3-11.9Z"/>
        <path class="cls-4" d="M374.1,82.2c13.3,4.7,12.1,14.6,8.5,22.3-3.4,7.2-18.3,22.7-18.3,22.7l-15.3-17.1s8.3-8.4,12.7-16,12.3-11.9,12.3-11.9Z"/>
        <polygon class="gray" points="348 111.1 350.4 107.9 366.2 126.5 361.3 128.6 348 111.1"/>
        <polygon class="cls-8" points="348 111.1 350.4 107.9 366.2 126.5 361.3 128.6 348 111.1"/>
      </g>
      <g id="freepik--Podium--inject-9">
        <path class="cls-13" d="M304.2,89.2l-3,1.2c-1,.4-2.2,0-2.6-1,0,0,0,0,0,0h0c-.4-1,0-2.2,1-2.6,0,0,0,0,0,0l3-1.2c1-.4,2.2,0,2.6,1,0,0,0,0,0,0h0c.4,1,0,2.2-1,2.6,0,0,0,0,0,0Z"/>
        <path class="cls-13" d="M281.5,123.5c-.1,0-.2,0-.3,0-.5-.2-.8-.8-.6-1.3h0s10-28,10-28c.7-1.9,2.1-3.4,3.9-4.2l4.9-2.1c.5-.2,1.1.1,1.3.6.2.5,0,1-.5,1.2l-4.9,2.1c-1.3.6-2.3,1.7-2.8,3l-10,28c-.2.4-.5.6-.9.6Z"/>
        <g class="cls-18">
          <path class="cls-15" d="M281.5,123.5c-.1,0-.2,0-.3,0-.5-.2-.8-.8-.6-1.3h0s10-28,10-28c.7-1.9,2.1-3.4,3.9-4.2l4.9-2.1c.5-.2,1.1.1,1.3.6.2.5,0,1-.5,1.2l-4.9,2.1c-1.3.6-2.3,1.7-2.8,3l-10,28c-.2.4-.5.6-.9.6Z"/>
        </g>
        <path class="cls-13" d="M284.2,89.2l-3,1.2c-1,.4-2.2,0-2.6-1,0,0,0,0,0,0h0c-.4-1,0-2.2,1-2.6,0,0,0,0,0,0l3-1.2c1-.4,2.2,0,2.6,1,0,0,0,0,0,0h0c.4,1,0,2.2-1,2.6,0,0,0,0,0,0Z"/>
        <path class="cls-13" d="M261.5,123.5c-.1,0-.2,0-.3,0-.5-.2-.8-.8-.6-1.3l10-28c.7-1.9,2.1-3.4,3.9-4.2l4.9-2.1c.5-.2,1.1.1,1.3.6.2.5,0,1-.5,1.2l-4.9,2.1c-1.3.6-2.3,1.6-2.8,3l-10,28c-.2.4-.5.6-.9.6Z"/>
        <g class="cls-18">
          <path class="cls-15" d="M261.5,123.5c-.1,0-.2,0-.3,0-.5-.2-.8-.8-.6-1.3l10-28c.7-1.9,2.1-3.4,3.9-4.2l4.9-2.1c.5-.2,1.1.1,1.3.6.2.5,0,1-.5,1.2l-4.9,2.1c-1.3.6-2.3,1.6-2.8,3l-10,28c-.2.4-.5.6-.9.6Z"/>
        </g>
        <polygon class="cls-13" points="239.7 125.8 239.7 111.1 281.3 126 342.8 126 342.8 140.7 281.3 140.7 239.7 125.8"/>
        <polygon class="cls-7" points="239.7 125.8 239.7 111.1 281.3 126 342.8 126 342.8 140.7 281.3 140.7 239.7 125.8"/>
        <polygon class="cls-13" points="339 138.7 300.4 124.9 300.4 283.5 339 283.5 339 138.7"/>
        <rect class="cls-13" x="243.4" y="124.9" width="57" height="158.6"/>
        <rect class="cls-6" x="243.4" y="124.9" width="57" height="158.6"/>
        <polygon class="cls-7" points="339 138.7 300.4 124.9 300.4 283.5 339 283.5 339 138.7"/>
        <rect class="cls-3" x="247.4" y="133.7" width="47.2" height="135.3"/>
        <rect class="cls-3" x="243.4" y="124.7" width="57" height="2.5"/>
        <rect class="cls-13" x="239.7" y="273.7" width="102.5" height="9.7"/>
        <polygon class="cls-13" points="342.8 126 342.8 140.7 301.2 125.8 239.7 125.8 239.7 111.1 301.2 111.1 342.8 126"/>
        <polygon class="cls-6" points="342.8 126 342.8 140.7 301.2 125.8 239.7 125.8 239.7 111.1 301.2 111.1 342.8 126"/>
        <rect class="cls-7" x="239.7" y="111.1" width="61.4" height="14.8"/>
        <polygon class="cls-7" points="301.3 273.7 239.7 273.7 239.7 277.9 297.1 277.9 297.1 275.1 301.3 273.7"/>
        <polygon class="cls-3" points="298.9 278.6 342.3 278.6 342.3 277 298.9 278.6"/>
        <rect class="cls-6" x="239.7" y="273.7" width="102.5" height="9.7"/>
        <rect class="cls-13" x="233.3" y="278.6" width="115.1" height="4.9"/>
        <rect class="cls-7" x="233.3" y="278.6" width="60.3" height="4.6"/>
        <rect class="cls-6" x="233.3" y="278.6" width="115.1" height="4.9"/>
      </g>
      <g id="freepik--character-1--inject-9">
        <polygon class="cls-14" points="69.9 278 68.9 287.6 68.1 295.4 60.7 295.4 60.7 278 69.9 278"/>
        <polygon class="cls-3" points="69.9 278 68.9 287.6 60.7 288.1 60.7 278 69.9 278"/>
        <path class="cls-13" d="M68.9,290.7h-9.2c-.3,0-.6.2-.7.6l-1.2,7.3c0,.7.4,1.3,1.1,1.4,0,0,.1,0,.2,0,3.2,0,4.8-.2,8.8-.2s7.6.3,11,.3,3.7-3.4,2.3-3.7c-6.4-1.4-8.8-3.3-11-5.1-.4-.3-.8-.5-1.3-.5Z"/>
        <path d="M55.9,216.8l3.7,69.7,11.4-.8s9.4-64.1,5.1-70.5-20.2,1.6-20.2,1.6Z"/>
        <polygon class="cls-14" points="100.9 278 99.9 287.6 99.1 295.4 91.7 295.4 91.7 278 100.9 278"/>
        <polygon class="cls-3" points="100.9 278 99.9 287.6 91.7 288.1 91.7 278 100.9 278"/>
        <path class="cls-13" d="M58.1,189.6l6.4,8.6s29-2.2,38.1,3.9-1.6,83.6-1.6,83.6l-11.2,1s-1.5-66.8-2.9-67.2-53.9,5.8-61.4,0-1.8-32.5-1.8-32.5l34.3,2.6Z"/>
        <path class="cls-13" d="M99.9,290.7h-9.2c-.3,0-.6.2-.7.6l-1.2,7.3c0,.7.4,1.3,1.1,1.4,0,0,.1,0,.2,0,3.2,0,4.8-.2,8.8-.2s7.6.3,11,.3,3.7-3.4,2.3-3.7c-6.4-1.4-8.8-3.3-10.9-5.1-.4-.3-.8-.5-1.3-.5Z"/>
        <path class="cls-16" d="M13.9,160.7l7.8,3.8,4.9,2.4,3-7.1,3-7.4-2.6-13.5c-8,3.5-16.1,21.9-16.1,21.9Z"/>
        <path class="cls-3" d="M21.7,164.5l4.9,2.4,3-7.1c-.6-4-1.1-7.4-1.1-7.4,0,0-5.8,5.1-6.8,12.2Z"/>
        <path class="cls-13" d="M65.4,118.1c0,.6.3,1.1.6,1.1s.7-.4.7-1-.3-1.1-.6-1.1-.7.4-.7,1Z"/>
        <path class="cls-21" d="M65.6,119.1c.6,1.8,1.5,3.5,2.5,5.1-.8.5-1.9.7-2.8.4l.3-5.5Z"/>
        <path class="cls-13" d="M63.4,114.8c0,0-.2,0-.2-.1-.1-.2,0-.4,0-.5.9-.6,2.1-.8,3.1-.4.2,0,.2.3.2.4,0,0,0,0,0,0,0,.2-.3.2-.4.2h0c-.8-.3-1.7-.2-2.4.3,0,0-.2,0-.3,0Z"/>
        <path class="cls-14" d="M65.5,127c-.2.8-.6,1.6-1,2.3-.7,1.3-1.8,2.4-3,3.2-1.3.9-2.7,1.4-4.2,1.6-3,.4-5.9-.7-7.9-3-3.4-3.8-3.1-8-3.2-15.1-.1-5.4,4.1-9.8,9.5-10,1.5,0,3,.3,4.4.9,6.9,3.2,7.3,13.8,5.5,20.1Z"/>
        <path class="cls-13" d="M46.5,127.6c2.4,2.4,14.2-.5,14.1-9.2,0,0,5.1-3.8,6-9.1s-2.2-8.3-6.3-8.1c-3.6.1-4,2-4,2,0,0-16.4-2.1-14.6,5.2-8.2,5.4,1.8,16.3,4.8,19.2Z"/>
        <path class="cls-14" d="M57.4,119.1c0,1.8.6,3.5,1.8,4.9,1.5,1.8,3.2.8,3.6-1.3.3-1.9,0-5.1-1.8-6.1s-3.5.4-3.5,2.5Z"/>
        <path class="cls-3" d="M64.5,129.2c-.7,1.3-1.8,2.4-3,3.2-1.3.9-2.7,1.4-4.2,1.6-.9-.7-1.7-1.4-2.4-2.2l2.2-3.2s3.9,3.1,7.5.6Z"/>
        <path class="cls-14" d="M43.9,138.8l3.6-10.6s6.1-2.6,11.3,1l-.4,8-14.4,1.6Z"/>
        <path class="cls-16" d="M39.9,136.5l2-3s15.1-.9,21.4,6c0,0-14.7,3-23.4-3Z"/>
        <path class="cls-3" d="M39.9,136.5l2-3s15.1-.9,21.4,6c0,0-14.7,3-23.4-3Z"/>
        <path class="cls-16" d="M69.3,149.8c0,.2-.1.3-.2.5-1.3,4.1-2.5,8.1-3.4,11.9-.7,2.6-1.3,5.2-1.8,7.6-2.4,11-3.3,19.4-4.1,22.1-5.6,0-26.7,0-38.2-.1,1.7-34.4,8.4-53,8.4-53,0,0,10-5,26.8-2.1,6.1,1,14.3,4.5,14.3,4.5-2.1,4.7-.3,4-1.8,8.6Z"/>
        <path class="cls-3" d="M69.3,149.8c0,.2-.1.3-.2.5-1.3,4.1-2.5,8.1-3.4,11.9-.7,2.6-1.3,5.2-1.8,7.6-2.6-6.9-1.1-18-1.1-18l6.5-1.9Z"/>
        <path class="cls-25" d="M61.3,143.4c5.7-6.5,12.2-13.1,18-19.5,1.8-4,2.8-10,3.9-14.8l3-14.5,4.9.5c0,5-.2,10-.6,15-.5,5.6-.9,10.9-2.6,16.5-.2.7-.6,1.4-.9,2.1-2.6,3.6-5.3,7.1-8.3,10.4-3.2,3.8-6.6,7.5-10,11.1l-7.4-6.8Z"/>
        <path class="cls-14" d="M85.8,97.1l-4.5-5.7,7.9-1.8s3.7,5.4.9,7.2l-4.3.3Z"/>
        <polygon class="cls-14" points="83.1 84.9 87.8 85 89.2 89.6 81.3 91.4 83.1 84.9"/>
        <path class="cls-16" d="M58.3,151.2c-1.6-6.1,4.1-10.7,15-22.6l10.2,7.7s-6.8,12.1-12.6,15.4-12.6-.6-12.6-.6Z"/>
        <polygon class="cls-13" points="46.6 228.9 44.4 300 47.5 300 51.1 228.9 46.6 228.9"/>
        <polygon class="cls-13" points="56.9 230.6 84.3 230.6 93 300 96.5 300 88.5 225.6 56.9 226.4 56.9 230.6"/>
        <polygon class="cls-13" points="54.9 226.4 16 226.4 14 226.4 5.5 300 7.4 300 7.8 297.3 7.5 300 9.4 300 19.2 230.7 51.2 230.7 51.4 300 53.4 300 53.6 300 55.6 300 56.9 226.4 54.9 226.4"/>
        <polygon class="cls-7" points="53.6 300 54.9 226.4 14 226.4 5.5 300 7.4 300 17.2 230.7 51.2 230.7 51.4 300 53.6 300"/>
        <polygon class="cls-7" points="84.3 230.6 86.5 230.6 95 300 93 300 84.3 230.6"/>
        <path class="cls-13" d="M58.1,215.4l-8.6-71.3c-.5-3.8-3.7-6.7-7.6-6.7H1.8c-1,0-1.8.8-1.8,1.8,0,0,0,0,0,0v74.2c0,7.7,6.3,14,14,14h80.1c.5,0,.9-.4.9-.9h0c0-3.5-2.8-6.3-6.3-6.3h-25.2c-2.8,0-5.1-2.1-5.4-4.9Z"/>
        <path class="cls-4" d="M95,226.5c0,.5-.4.9-.9.9H14c-7.7,0-14-6.3-14-14v-74.2c0-.3,0-.6.2-.9.3-.6.9-.9,1.6-.9h40.1c3.9,0,7.1,2.9,7.6,6.7l8.6,71.3c.3,2.8,2.7,4.8,5.4,4.8h25.2c3.5,0,6.3,2.8,6.3,6.3h0Z"/>
        <path class="cls-3" d="M65,227.4H14C6.3,227.4,0,221.1,0,213.4v-74.2c0-.3,0-.6.2-.9h40c3.1,0,5.8,2.4,6.1,5.5l7.5,73.5c.6,5.8,5.4,10.1,11.2,10.1Z"/>
      </g>
      <g id="freepik--character-2--inject-9">
        <polygon class="cls-19" points="173.9 277.1 175.3 286.7 176.5 294.4 169.3 296.2 165.1 279.3 173.9 277.1"/>
        <polygon class="cls-3" points="173.9 277.1 175.3 286.7 167.5 289.2 165.1 279.3 173.9 277.1"/>
        <path class="cls-13" d="M177.2,290.7h-9.2c-.3,0-.6.2-.7.6l-1.2,7.3c0,.7.4,1.3,1.1,1.4,0,0,.1,0,.2,0,3.2,0,4.8-.2,8.8-.2s7.6.3,11,.3,3.7-3.4,2.3-3.7c-6.4-1.4-8.8-3.3-11-5.1-.4-.3-.8-.5-1.3-.5Z"/>
        <path class="cls-16" d="M143.1,220.6l21.5,66.4,10.8-3.7s-7.5-64.4-13.2-69.5-19.1,6.7-19.1,6.7Z"/>
        <path class="cls-6" d="M177.2,290.7h-9.2c-.3,0-.6.2-.7.6l-1.2,7.3c0,.7.4,1.3,1.1,1.4,0,0,.1,0,.2,0,3.2,0,4.8-.2,8.8-.2s7.6.3,11,.3,3.7-3.4,2.3-3.7c-6.4-1.4-8.8-3.3-11-5.1-.4-.3-.8-.5-1.3-.5Z"/>
        <path class="cls-3" d="M143.1,220.6l21.5,66.4,10.8-3.7s-7.5-64.4-13.2-69.5-19.1,6.7-19.1,6.7Z"/>
        <path class="cls-19" d="M151,167.4l4.8-5.1,2.8,7.2s-4.5,4.3-6.6,1.9l-1-4Z"/>
        <polygon class="cls-19" points="162.1 163 162.7 167.4 158.5 169.5 155.7 162.3 162.1 163"/>
        <g class="cls-11">
          <path d="M151,167.4l4.8-5.1,2.8,7.2s-4.5,4.3-6.6,1.9l-1-4Z"/>
          <polygon points="162.1 163 162.7 167.4 158.5 169.5 155.7 162.3 162.1 163"/>
        </g>
        <path class="cls-12" d="M156.2,147.9c4.3,7.1,8.3,13.9,11.5,21.7,2.6,6-1.7,9.8-7.6,8.9-6.5-.9-12.1-3.1-17.9-5.7l1.5-4.8c3.9.5,7.8,1.1,11.6,1.6,2.3.2,4.5.6,6.5.2-.5,0-1.1.3-1.8,1.4-.4.7-.6,1.6-.5,2.5,0,.3-.2-.5-.3-.6-3.4-6.6-7.9-13.5-11.6-20l8.6-5.2h0Z"/>
        <polygon class="cls-19" points="196.2 278 195.2 287.6 194.4 295.4 187.1 295.4 187.1 278 196.2 278"/>
        <polygon class="cls-3" points="196.2 278 195.2 287.6 187.1 288.1 187.1 278 196.2 278"/>
        <path class="cls-16" d="M153.5,189.6l6.4,8.6s28.9-2.2,38.1,3.9-1.6,83.6-1.6,83.6l-11.2,1s-1.5-66.8-2.8-67.2-53.9,5.8-61.4,0-1.8-32.5-1.8-32.5l34.3,2.6Z"/>
        <path class="cls-13" d="M139.5,114.6c0,.6.4,1,.8,1s.6-.5.6-1.1-.4-1-.8-1-.6.5-.6,1.1Z"/>
        <path class="cls-24" d="M139.9,115.6c.8,1.7,1.9,3.3,3.2,4.7-.7.6-1.7.9-2.7.8l-.5-5.5Z"/>
        <path class="cls-13" d="M137.1,111.5c-.2,0-.3-.2-.3-.4,0,0,0-.2.1-.2.8-.7,1.9-1,3-.8.2,0,.3.2.2.4,0,.2-.2.3-.4.2h0c-.9-.2-1.7,0-2.4.6,0,0-.2,0-.2,0Z"/>
        <path class="cls-19" d="M140.7,123.4c-.1.8-.3,1.6-.7,2.4-.6,1.4-1.5,2.6-2.6,3.6-1.1,1-2.5,1.8-4,2.2-2.9.8-6,0-8.2-1.9-3.9-3.3-4.1-7.5-5.2-14.6-.8-5.3,2.8-10.3,8.1-11.1,1.5-.2,3-.1,4.5.3,7.2,2.2,9.1,12.6,8.1,19.2Z"/>
        <path class="cls-3" d="M140.1,125.7c-.6,1.4-1.5,2.6-2.6,3.6-1.1,1-2.5,1.8-4,2.2-.9-.6-1.8-1.2-2.7-1.9l1.7-3.5s4.3,2.5,7.5-.4Z"/>
        <path class="cls-13" d="M131.4,122.5c-.4,3.3-5.5,1.4-8.8,3.3,0,0-5.6-2.6-8.7-16.8-1.8-8.4,16.4-9.3,16.4-9.3,0,0,.2-2-2.2-3.2,0,0,4.4-.2,6,3.2.4-1.1.2-2.3-.4-3.3,0,0,8.4,3.2,3.4,10.6,0,0-2.9-.7-2,1s5.5,6.4-1.6,11c-1,.9-1.7,2.1-2.1,3.4Z"/>
        <path class="cls-19" d="M131.7,116.6c.3,1.8,1.1,3.4,2.4,4.6,1.7,1.6,3.2.4,3.4-1.7.1-1.9-.6-5-2.6-5.8s-3.4.8-3.1,3Z"/>
        <path class="cls-19" d="M136.9,140.5l-1.7-12.1s-4.2-5.9-11.8-2.6l-.3,10,13.7,4.7Z"/>
        <path class="cls-16" d="M119.2,136.5l2-3s15.1-.9,21.4,6c0,0-14.7,3-23.4-3Z"/>
        <path class="cls-9" d="M119.2,136.5l2-3s15.1-.9,21.4,6c0,0-14.7,3-23.4-3Z"/>
        <path class="cls-16" d="M151,150.4v.5c0,4,.1,8,.4,11.7.2,2.6.4,5.1.7,7.5,1.2,10.8,2.9,19.1,3.1,21.9-5.6,0-26.7,0-38.2-.1-9.5-33.9-8.8-52.3-8.8-52.3,0,0,8.3-4.9,26.2-2,6.4,1,15.8,4.4,15.8,4.4-.6,4.6,1,3.9,1,8.5Z"/>
        <g class="cls-17">
          <path class="cls-15" d="M155.1,191.9c-5.6,0-26.7,0-38.2-.1-9.5-33.9-8.8-52.3-8.8-52.3,0,0,8.3-4.9,26.2-2,6.4,1,15.8,4.4,15.8,4.4-.6,4.6,1,3.9,1,8.5v.5c0,3.5,0,6.8.3,10.1,0,.5,0,1.1.1,1.6.1,1.7.3,3.4.4,5.1,0,.8.2,1.6.2,2.4,1.1,10.8,2.9,19.1,3,21.8Z"/>
        </g>
        <path class="cls-13" d="M195.2,290.7h-9.2c-.3,0-.6.2-.7.6l-1.2,7.3c0,.7.4,1.3,1.1,1.4,0,0,.1,0,.2,0,3.2,0,4.8-.2,8.8-.2s7.6.3,11,.3,3.7-3.4,2.3-3.7c-6.4-1.4-8.8-3.3-11-5.1-.4-.3-.8-.5-1.3-.5Z"/>
        <path class="cls-10" d="M195.2,290.7h-9.2c-.3,0-.6.2-.7.6l-1.2,7.3c0,.7.4,1.3,1.1,1.4,0,0,.1,0,.2,0,3.2,0,4.8-.2,8.8-.2s7.6.3,11,.3,3.7-3.4,2.3-3.7c-6.4-1.4-8.8-3.3-11-5.1-.4-.3-.8-.5-1.3-.5Z"/>
        <path class="cls-3" d="M151.8,167.7c-3-1.5-5.2-8.6-5.2-8.6,1.6.5,3.2,1.2,4.7,1.9,0,.5,0,1.1.1,1.6.1,1.7.2,3.4.4,5.1Z"/>
        <path class="cls-16" d="M150,141.9c6.3,1.8,15.1,21.4,15.1,21.4,0,0-3.7,6.1-9.3,6.4l-10.1-10.7,4.3-17.2Z"/>
        <path class="cls-4" d="M150,141.9c6.3,1.8,15.1,21.4,15.1,21.4,0,0-3.7,6.1-9.3,6.4l-10.1-10.7,4.3-17.2Z"/>
        <polygon class="cls-13" points="141.9 228.9 139.8 300 142.8 300 146.4 228.9 141.9 228.9"/>
        <polygon class="cls-13" points="152.2 230.6 179.6 230.6 188.3 300 191.9 300 183.9 225.6 152.2 226.4 152.2 230.6"/>
        <polygon class="cls-13" points="150.2 226.4 111.3 226.4 109.3 226.4 100.8 300 102.7 300 103.1 297.3 102.8 300 104.7 300 114.5 230.7 146.5 230.7 146.7 300 148.7 300 148.9 300 150.9 300 152.2 226.4 150.2 226.4"/>
        <polygon class="cls-7" points="148.9 300 150.2 226.4 109.3 226.4 100.8 300 102.7 300 112.5 230.7 146.5 230.7 146.7 300 148.9 300"/>
        <polygon class="cls-7" points="179.6 230.6 181.9 230.6 190.3 300 188.3 300 179.6 230.6"/>
        <path class="cls-13" d="M153.4,215.4l-8.6-71.3c-.5-3.8-3.7-6.7-7.6-6.7h-40.1c-1,0-1.8.8-1.8,1.8,0,0,0,0,0,0v74.2c0,7.7,6.3,14,14,14h80.1c.5,0,.9-.4.9-.9,0,0,0,0,0,0h0c0-3.5-2.8-6.3-6.3-6.3h-25.2c-2.8,0-5.1-2.1-5.4-4.9Z"/>
        <path class="cls-4" d="M190.3,226.5c0,.5-.4.9-.9.9h-80.1c-7.7,0-14-6.3-14-14v-74.2c0-.3,0-.6.2-.9.3-.6.9-.9,1.6-.9h40.1c3.9,0,7.1,2.9,7.6,6.7l8.6,71.3c.3,2.8,2.7,4.8,5.4,4.8h25.2c3.5,0,6.3,2.8,6.3,6.3h0Z"/>
        <path class="cls-3" d="M160.3,227.4h-51c-7.7,0-14-6.3-14-14v-74.2c0-.3,0-.6.2-.9h40c3.1,0,5.8,2.4,6.1,5.5l7.5,73.5c.6,5.8,5.4,10.1,11.2,10.1Z"/>
      </g>
      <g id="freepik--character-3--inject-9">
        <polygon class="cls-1" points="238.4 291.3 245 293 249.7 278.1 243.2 276.4 238.4 291.3"/>
        <polygon class="cls-3" points="249.7 278.1 247.1 286.4 240.7 284.1 243.1 276.4 249.7 278.1"/>
        <path class="gray" d="M240.1,280.1l8.1-51.1-23.1-9.8,18.1-8.3s17.4,5.2,23.2,9.4-17.4,62.2-17.4,62.2l-9-2.3Z"/>
        <path class="cls-8" d="M240.1,280.1l8.1-51.1-23.1-9.8,18.1-8.3s17.4,5.2,23.2,9.4-17.4,62.2-17.4,62.2l-9-2.3Z"/>
        <path class="cls-13" d="M245.9,290.3l-7.2-2.3c-.3,0-.5,0-.7.3l-2.8,5.4c-.3.5,0,1.1.4,1.4,0,0,.2,0,.2,0,2.5.8,3.8,1,7,2,2,.6,5.9,2.1,8.6,3s3.8-1.7,2.7-2.3c-4.7-2.7-6.1-4.8-7.3-6.7-.2-.4-.6-.6-1-.8Z"/>
        <path class="cls-16" d="M249.6,291.3c.3-.1.5-.4.5-.6,0-.2,0-.4-.1-.5-.6-.7-3.6-.2-4-.1,0,0-.1,0-.1.1,0,0,0,.1,0,.2.6.3,1.3.6,1.9.9.5.2,1.1.3,1.7.1ZM249.8,290.4c0,0,0,.1,0,.2,0,.2-.2.4-.4.4-.5.2-1.6,0-2.9-.7,1.3-.2,3-.3,3.3.1h0Z"/>
        <path class="cls-16" d="M246.1,290.4c.9-.1,2.9-1,3-1.8,0-.2,0-.4-.4-.6h-.1c-1.4-.5-2.6,2.1-2.6,2.2,0,0,0,.1,0,.2,0,0,0,0,0,0h0ZM248.6,288.3c.3.1.2.2.2.3,0,.5-1.5,1.2-2.4,1.4.3-.6,1.2-2,2.1-1.7h0Z"/>
        <polygon class="cls-16" points="239.1 278.2 238.2 281.3 249.1 285 251.2 280.9 239.1 278.2"/>
        <polygon class="cls-1" points="269.8 296.1 276.5 295.9 276.8 280.3 270 280.5 269.8 296.1"/>
        <path class="cls-13" d="M276.6,292.6h-7.6c-.3,0-.5.2-.5.5l-1,6c0,.6.3,1.1.9,1.2,0,0,.1,0,.2,0,2.6,0,3.9-.2,7.2-.2s6.3.2,9.1.2,3-2.8,1.9-3.1c-5.3-1.1-7.3-2.7-9-4.2-.3-.3-.7-.4-1.2-.4Z"/>
        <polygon class="cls-3" points="276.8 280.3 276.6 288.9 269.9 288.6 270 280.5 276.8 280.3"/>
        <path class="cls-16" d="M280.8,293.3c.2-.2.3-.5.3-.8,0-.2-.1-.3-.3-.4-.8-.5-3.5.9-3.9,1.1,0,0,0,0,0,.2,0,0,0,.1.1.1.7.1,1.4.2,2.1.2.6,0,1.2,0,1.6-.4ZM280.6,292.4c0,0,.1,0,.1.2,0,.2,0,.4-.2.5-.4.4-1.5.4-3,.2,1.1-.5,2.7-1.1,3.1-.9Z"/>
        <path class="cls-16" d="M277.1,293.5c.8-.4,2.5-1.8,2.3-2.6,0-.2-.1-.4-.6-.4h-.1c-1.5,0-1.8,2.8-1.8,2.9,0,0,0,.1,0,.1h.2ZM278.8,290.8c.3,0,.3.1.3.2,0,.5-1,1.6-1.9,2.1.1-.7.5-2.3,1.5-2.3h.1Z"/>
        <path class="cgray" d="M236.6,184.1l5.2,11.1s33.9,1.3,42.2,14.9c3.3,5.5-7,77-7,77l-8.6-.6s-3.8-40-3.1-63.8c0,0-34.9,4.9-44.2.2s-12.7-13.6-11.7-25.9,27.2-12.9,27.2-12.9Z"/>
        <path class="cls-4" d="M236.6,184.1l5.2,11.1s33.9,1.3,42.2,14.9c3.3,5.5-7,77-7,77l-8.6-.6s-3.8-40-3.1-63.8c0,0-34.9,4.9-44.2.2s-12.7-13.6-11.7-25.9,27.2-12.9,27.2-12.9Z"/>
        <path class="cls-1" d="M210.5,155.4c-3.3,7.4-6.5,15.4-8.1,23.3,0-.7-.3-1.4-.9-1.9-.2-.1-.3-.1-.3-.1.6.2,1.2.3,1.8.3,5.9,0,12-1.3,17.9-2.4l1.2,3.8c-5.6,2.2-23.5,9.8-26.7,1.9-.4-1.1-.5-2.3-.2-3.4,1.2-8.9,4.1-17,7.9-25l7.3,3.5Z"/>
        <path class="cls-16" d="M197.4,161.3l9.9,6.1s.5-.6,1.3-1.6c1.6-2,4.2-5.7,4.8-9.6.2-1.1.3-2.3,0-3.5-.6-3.4-3.8-5.9-8.1-4.3s-8.1,12.9-8.1,12.9Z"/>
        <path class="cls-3" d="M208.7,165.8c1.6-2,4.2-5.7,4.8-9.6-.4-.5-2.1-3.4-2.6-3.9,0,0-5.3,4.2-2.3,13.5Z"/>
        <polygon class="cls-16" points="266.5 283.5 266.7 286.8 278.2 287 278.9 282.4 266.5 283.5"/>
        <path class="cls-13" d="M235.2,126.1c0,.5.3,1,.7,1s.6-.4.6-1-.3-1-.7-1-.6.5-.6,1Z"/>
        <path class="cls-13" d="M235.7,125.2l1.3-.4s-.6,1-1.3.4Z"/>
        <path class="cls-23" d="M235.7,126.7c.5,1.2,1.2,2.4,2,3.5-.6.4-1.3.5-1.9.4v-3.8Z"/>
        <path class="cls-13" d="M235.9,122.5h-.2c-.8-.3-1.6-.2-2.3.3-.1.1-.3,0-.4,0,0,0,0,0,0,0-.1-.1,0-.3,0-.4,0,0,0,0,0,0,.9-.6,1.9-.7,2.9-.4.2,0,.3.2.2.4,0,0-.1.2-.2.2h0Z"/>
        <path class="cls-16" d="M208.3,210.8c19.4,4.7,37.3-7.7,37.3-7.7-6.1-15.4-3.7-27.9-2.3-35.3.3-1.5.6-3,.7-4.5,0-1.5,0-3.1-.1-4.6-.4-3.6-.6-7.1-.6-10.7,0,0-7.9-2.6-26.4-2.5-.3,0-.6,0-.9.1-.8.2-1.6.4-2.4.5-.5.1-1.1.2-1.6.4s-1.1.3-1.7.5c-2.9.8-4.8,1.5-4.8,1.5,8.9,21.8-1.5,46.3,2.9,62.4Z"/>
        <path class="cls-1" d="M216.9,124.5c.5,6.6.6,9.5,4.1,12.9,5.2,5.2,13.3,3.3,14.8-3.3,1.3-6,.2-15.8-6.4-18.5-4.5-2-9.8,0-11.8,4.6-.6,1.4-.9,2.9-.7,4.4Z"/>
        <path class="cls-1" d="M230.2,125.6c.3,1.2.9,2.3,1.8,3.2,1.3,1.2,2.4.6,2.5-.7s-.5-3.2-2-4-2.5.2-2.2,1.6Z"/>
        <path class="cls-3" d="M242.6,180.4c.4-1.8,1.2-16,1.3-17.1,0-1.5,0-3.1-.1-4.6-3.6-2.6-6.1,4.8-6.1,4.8,0,0-3.2,8.1,4.9,17Z"/>
        <path class="cls-1" d="M247.5,156.5c.4,8.8,1.4,17.5,3.1,26.2.3,1.2,1.9,2.7,3,3.6,5.1,4,11.4,7,17.3,9.8l-1.4,4.1c-4.7-1.1-9.2-2.6-13.6-4.5-5.2-2.5-11.3-5.2-13.1-11.4-2.5-9-3.9-18.2-4.1-27.5l8.6-.2h0Z"/>
        <path class="cls-1" d="M269.6,195.6l5.6,2-2.7,4.6s-5.8-1-5-5.1l2.1-1.5Z"/>
        <polygon class="cls-1" points="277.1 199.7 275.8 203.9 272.5 202.2 275.2 197.6 277.1 199.7"/>
        <path class="cls-16" d="M243.2,147.9c3.8,1.1,8.6,13.1,8.5,17.2l-12.9,6.4s-3.1-7.2-.2-17.5c1-3.9,2.5-6.6,4.6-6.1Z"/>
        <path class="cls-13" d="M233.1,114.1c4.2,2,4.3,12.1-1.2,16.2,0,0-.1,6.6,3.2,9.8s1,10.6-6.2,16c0,0,1.9-3.1,2-4.3-1.7,3-4.2,5.5-7.2,7.2-5,2.8-3.8,6.3-3.8,6.3,0,0-7.6-1.1-7.4-8.6-.6,1.6-.5,3.3.1,4.8-3.3-2.3-5.2-6.2-5.1-10.3.5-6.7,3.6-8.1,1.8-22.8-1.6-12.8,10-20.9,23.8-14.4Z"/>
        <polygon class="cls-13" points="229.9 228.9 227.7 300 230.7 300 234.3 228.9 229.9 228.9"/>
        <polygon class="cls-13" points="240.1 230.6 267.5 230.6 276.2 300 279.8 300 271.8 225.6 240.1 226.4 240.1 230.6"/>
        <polygon class="cls-13" points="238.1 226.4 199.2 226.4 197.2 226.4 188.7 300 190.6 300 191 297.3 190.7 300 192.6 300 202.5 230.7 234.4 230.7 234.7 300 236.7 300 236.8 300 238.8 300 240.1 226.4 238.1 226.4"/>
        <polygon class="cls-7" points="236.8 300 238.1 226.4 197.2 226.4 188.7 300 190.6 300 200.4 230.7 234.4 230.7 234.7 300 236.8 300"/>
        <polygon class="cls-7" points="267.5 230.6 269.8 230.6 278.2 300 276.2 300 267.5 230.6"/>
        <path class="cls-13" d="M241.3,215.4l-8.6-71.3c-.5-3.8-3.7-6.7-7.6-6.7h-40.1c-1,0-1.8.8-1.8,1.8v74.2c0,7.7,6.3,14,14,14h80.1c.5,0,.9-.4.9-.9,0,0,0,0,0,0h0c0-3.5-2.8-6.3-6.3-6.3h-25.2c-2.8,0-5.1-2.1-5.4-4.9Z"/>
        <path class="cls-4" d="M278.2,226.5c0,.5-.4.9-.9.9h-80.1c-7.7,0-14-6.3-14-14v-74.2c0-.3,0-.6.2-.9.3-.6.9-.9,1.6-.9h40.1c3.9,0,7.1,2.9,7.6,6.7l8.6,71.3c.3,2.8,2.7,4.8,5.4,4.8h25.2c3.5,0,6.3,2.8,6.3,6.3Z"/>
        <path class="cls-3" d="M248.2,227.4h-51c-7.7,0-14-6.3-14-14v-74.2c0-.3,0-.6.2-.9h40c3.1,0,5.8,2.4,6.1,5.5l7.5,73.5c.6,5.8,5.4,10.1,11.2,10.1Z"/>
      </g>
    </g>
  </g>
</svg>